<?xml version="1.0" encoding="UTF-8"?>
<svg id="addSong" xmlns="http://www.w3.org/2000/svg" version="1.1" viewBox="0 0 24 24">
  <!-- Generator: Adobe Illustrator 30.1.0, SVG Export Plug-In . SVG Version: 2.1.1 Build 136)  -->
  <defs>
    <style>
      .st0 {
        stroke: #868686;
      }

      .st0, .st1 {
        fill: none;
        stroke-linecap: round;
        stroke-linejoin: round;
        stroke-width: 2px;
      }

      .st1 {
        stroke: #000cfe;
      }
    </style>
  </defs>
  <path id="vector" class="st1" d="M1.9,6.74c-.54-.09-.54-.86,0-.96,2.02-.35,3.51-1.92,3.94-3.89.12-.53.87-.53.99,0,.45,1.97,1.93,3.54,3.96,3.89.54.09.54.87,0,.96-2.03.35-3.51,1.92-3.96,3.89-.12.53-.87.53-.99,0-.43-1.97-1.92-3.54-3.94-3.89Z"/>
  <path id="vector1" data-name="vector" class="st1" d="M3.33,12.29v3.66"/>
  <path id="vector2" data-name="vector" class="st1" d="M1.5,14.12h3.66"/>
  <path id="vector3" data-name="vector" class="st0" d="M7.81,22.5c1.48,0,2.67-1.2,2.67-2.67s-1.2-2.67-2.67-2.67-2.67,1.2-2.67,2.67,1.2,2.67,2.67,2.67Z"/>
  <path id="vector4" data-name="vector" class="st0" d="M19.83,19.16c1.48,0,2.67-1.2,2.67-2.67s-1.2-2.67-2.67-2.67-2.67,1.2-2.67,2.67,1.2,2.67,2.67,2.67Z"/>
  <path id="vector5" data-name="vector" class="st0" d="M10.48,12.48l12.02-3.34"/>
  <path id="vector6" data-name="vector" class="st0" d="M22.5,16.44V5.81c0-.1-.02-.21-.07-.3-.05-.09-.11-.17-.19-.24s-.18-.11-.28-.13c-.1-.02-.2-.02-.3.01l-7.2,2.03"/>
  <path id="vector7" data-name="vector" class="st0" d="M10.48,19.83v-9.19"/>
</svg>