<?xml version="1.0" encoding="UTF-8"?>
<svg id="playerPlay" xmlns="http://www.w3.org/2000/svg" version="1.1" viewBox="0 0 24 24">
  <!-- Generator: Adobe Illustrator 30.1.0, SVG Export Plug-In . SVG Version: 2.1.1 Build 136)  -->
  <defs>
    <style>
      .st0 {
        fill: none;
        stroke: #868686;
        stroke-linecap: round;
        stroke-linejoin: round;
        stroke-width: 2px;
      }
    </style>
  </defs>
  <path id="vector" class="st0" d="M3,20.62c0,.34.1.67.28.95.18.29.44.52.74.67.3.17.64.26.99.26s.68-.09.99-.26l13.99-8.65c.31-.15.56-.38.74-.67.18-.29.27-.62.27-.95s-.1-.67-.27-.95c-.18-.29-.44-.52-.74-.67L5.99,1.76c-.3-.17-.64-.26-.99-.26s-.68.09-.99.26c-.3.15-.56.39-.74.67s-.28.61-.28.95v17.25h0Z"/>
</svg>