<?xml version="1.0" encoding="UTF-8"?>
<svg id="audioScan" xmlns="http://www.w3.org/2000/svg" version="1.1" viewBox="0 0 24 24">
  <!-- Generator: Adobe Illustrator 30.1.0, SVG Export Plug-In . SVG Version: 2.1.1 Build 136)  -->
  <defs>
    <style>
      .st0 {
        stroke: #868686;
      }

      .st0, .st1 {
        fill: none;
        stroke-linecap: round;
        stroke-linejoin: round;
        stroke-width: 2px;
      }

      .st1 {
        stroke: #000cfe;
      }
    </style>
  </defs>
  <path id="vector" class="st0" d="M22.5,17.25v3.5c0,.46-.18.91-.52,1.23s-.77.52-1.23.52h-3.5"/>
  <path id="vector1" data-name="vector" class="st0" d="M17.25,1.5h3.5c.46,0,.91.18,1.23.52.32.33.52.77.52,1.23v3.5"/>
  <path id="vector2" data-name="vector" class="st1" d="M12,7.19v9.63"/>
  <path id="vector3" data-name="vector" class="st1" d="M7.62,8.94v6.12"/>
  <path id="vector4" data-name="vector" class="st1" d="M16.37,8.94v6.12"/>
  <path id="vector5" data-name="vector" class="st0" d="M1.5,6.75v-3.5c0-.46.18-.91.52-1.23.33-.33.77-.52,1.23-.52h3.5"/>
  <path id="vector6" data-name="vector" class="st0" d="M6.75,22.5h-3.5c-.46,0-.91-.18-1.23-.52-.33-.32-.52-.77-.52-1.23v-3.5"/>
</svg>