<?xml version="1.0" encoding="UTF-8"?>
<svg id="dashboard" xmlns="http://www.w3.org/2000/svg" version="1.1" viewBox="0 0 24 24">
  <!-- Generator: Adobe Illustrator 30.1.0, SVG Export Plug-In . SVG Version: 2.1.1 Build 136)  -->
  <defs>
    <style>
      .st0 {
        stroke: #868686;
      }

      .st0, .st1 {
        fill: none;
        stroke-linecap: round;
        stroke-linejoin: round;
        stroke-width: 2px;
      }

      .st1 {
        stroke: #000cfe;
      }
    </style>
  </defs>
  <path id="vector" class="st0" d="M21.62,10.25h-7c-.48,0-.88.39-.88.88v10.5c0,.48.39.88.88.88h7c.48,0,.88-.39.88-.88v-10.5c0-.48-.39-.88-.88-.88Z"/>
  <path id="vector1" data-name="vector" class="st1" d="M21.62,1.5h-7c-.48,0-.88.39-.88.88v3.52c0,.48.39.88.88.88h7c.48,0,.88-.39.88-.88v-3.52c0-.48-.39-.88-.88-.88Z"/>
  <path id="vector2" data-name="vector" class="st0" d="M9.38,1.5H2.38c-.48,0-.88.39-.88.88v10.5c0,.48.39.88.88.88h7c.48,0,.88-.39.88-.88V2.38c0-.48-.39-.88-.88-.88Z"/>
  <path id="vector3" data-name="vector" class="st1" d="M9.38,17.23H2.38c-.48,0-.88.39-.88.88v3.52c0,.48.39.88.88.88h7c.48,0,.88-.39.88-.88v-3.52c0-.48-.39-.88-.88-.88Z"/>
</svg>