<?xml version="1.0" encoding="UTF-8"?>
<svg id="playerPause" xmlns="http://www.w3.org/2000/svg" version="1.1" viewBox="0 0 24 24">
  <!-- Generator: Adobe Illustrator 30.1.0, SVG Export Plug-In . SVG Version: 2.1.1 Build 136)  -->
  <defs>
    <style>
      .st0 {
        fill: none;
        stroke: #868686;
        stroke-linecap: round;
        stroke-linejoin: round;
        stroke-width: 2px;
      }
    </style>
  </defs>
  <path id="vector" class="st0" d="M7.62,1.5H3.25c-.96,0-1.75.79-1.75,1.75v17.5c0,.96.79,1.75,1.75,1.75h4.37c.96,0,1.75-.79,1.75-1.75V3.25c0-.96-.79-1.75-1.75-1.75Z"/>
  <path id="vector1" data-name="vector" class="st0" d="M20.75,1.5h-4.38c-.96,0-1.75.79-1.75,1.75v17.5c0,.96.79,1.75,1.75,1.75h4.38c.96,0,1.75-.79,1.75-1.75V3.25c0-.96-.79-1.75-1.75-1.75Z"/>
</svg>