<?xml version="1.0" encoding="UTF-8"?>
<svg id="waveSignalMonitor" xmlns="http://www.w3.org/2000/svg" version="1.1" viewBox="0 0 24 24">
  <!-- Generator: Adobe Illustrator 30.1.0, SVG Export Plug-In . SVG Version: 2.1.1 Build 136)  -->
  <defs>
    <style>
      .st0 {
        stroke: #868686;
      }

      .st0, .st1 {
        fill: none;
        stroke-linecap: round;
        stroke-linejoin: round;
        stroke-width: 2px;
      }

      .st1 {
        stroke: #000cfe;
      }
    </style>
  </defs>
  <path id="vector" class="st0" d="M18.04,18.04l4.46,4.46"/>
  <path id="vector1" data-name="vector" class="st1" d="M11.19,20.88c5.36,0,9.69-4.34,9.69-9.69S16.55,1.5,11.19,1.5,1.5,5.86,1.5,11.21s4.34,9.69,9.69,9.69h0v-.02Z"/>
  <path id="vector2" data-name="vector" class="st0" d="M4.62,11.2h1.9c.38,0,.73-.22.9-.56l1.64-3.26c.07-.13.2-.21.34-.21.16,0,.31.1.36.25l2.85,7.59c.05.14.19.24.34.24s.29-.09.34-.24l1.18-3.14c.15-.39.52-.66.95-.66h2.33"/>
</svg>